<?xml version="1.0" encoding="UTF-8" standalone="no"?>
<svg width="138px" height="220px" viewBox="0 0 138 220" version="1.1" xmlns="http://www.w3.org/2000/svg" xmlns:xlink="http://www.w3.org/1999/xlink" xmlns:sketch="http://www.bohemiancoding.com/sketch/ns">
    <title>Slice 1</title>
    <description>Created with Sketch (http://www.bohemiancoding.com/sketch)</description>
    <defs>
        <linearGradient x1="50%" y1="0%" x2="50%" y2="100%" id="linearGradient-1">
            <stop stop-color="#FF326E" offset="0%"></stop>
            <stop stop-color="#E81C3D" offset="100%"></stop>
        </linearGradient>
        <linearGradient x1="50%" y1="0%" x2="50%" y2="100%" id="linearGradient-2">
            <stop stop-color="#F7934C" offset="0%"></stop>
            <stop stop-color="#F36F39" offset="100%"></stop>
        </linearGradient>
        <linearGradient x1="50%" y1="0%" x2="50%" y2="100%" id="linearGradient-3">
            <stop stop-color="#FAC724" offset="0%"></stop>
            <stop stop-color="#F8AB1D" offset="100%"></stop>
        </linearGradient>
    </defs>
    <g id="Page-1" stroke="none" stroke-width="1" fill="none" fill-rule="evenodd" sketch:type="MSPage">
        <path d="M28,1 L28,25.32 C32.66,25.69 36.79,26.39 39.99,27.3 L39.99,1 L28,1 L28,1 Z M30,17 L33,17 L33,22 L30,22 L30,17 L30,17 Z M35,17 L38,17 L38,22 L35,22 L35,17 L35,17 Z M30,10 L33,10 L33,15 L30,15 L30,10 L30,10 Z M35,10 L38,10 L38,15 L35,15 L35,10 L35,10 Z M30,3 L33,3 L33,8 L30,8 L30,3 L30,3 Z M35,3 L38,3 L38,8 L35,8 L35,3 L35,3 Z" id="Shape-copy-copy" fill-opacity="0.15" fill="#000000" sketch:type="MSShapeGroup"></path>
        <path d="M14,8 L14,25.17 C15.93,25.06 17.94,25 20,25 C22.06,25 24.07,25.06 26,25.18 L26,8 L14,8 L14,8 Z M16,17 L19,17 L19,22 L16,22 L16,17 L16,17 Z M21,17 L24,17 L24,22 L21,22 L21,17 L21,17 Z M16,10 L19,10 L19,15 L16,15 L16,10 L16,10 Z M21,10 L24,10 L24,15 L21,15 L21,10 L21,10 Z" id="Shape-copy-copy" fill-opacity="0.15" fill="#000000" sketch:type="MSShapeGroup"></path>
        <path d="M0,15 L0,27.29 C3.2,26.38 7.33,25.68 12,25.31 L12,15 L0,15 L0,15 Z M2,17 L5,17 L5,22 L2,22 L2,17 L2,17 Z M7,17 L10,17 L10,22 L7,22 L7,17 L7,17 Z" id="Shape-copy-copy" fill-opacity="0.15" fill="#000000" sketch:type="MSShapeGroup"></path>
        <g id="Shape-copy-copy-+-Shape-copy-copy-+-Shape-copy-copy-copy" sketch:type="MSLayerGroup">
            <path d="M28,0 L28,24.32 C32.66,24.69 36.79,25.39 39.99,26.3 L39.99,0 L28,0 L28,0 Z M30,16 L33,16 L33,21 L30,21 L30,16 L30,16 Z M35,16 L38,16 L38,21 L35,21 L35,16 L35,16 Z M30,9 L33,9 L33,14 L30,14 L30,9 L30,9 Z M35,9 L38,9 L38,14 L35,14 L35,9 L35,9 Z M30,2 L33,2 L33,7 L30,7 L30,2 L30,2 Z M35,2 L38,2 L38,7 L35,7 L35,2 L35,2 Z" id="Shape-copy-copy" fill="url(#linearGradient-1)" sketch:type="MSShapeGroup"></path>
            <path d="M14,7 L14,24.17 C15.93,24.06 17.94,24 20,24 C22.06,24 24.07,24.06 26,24.18 L26,7 L14,7 L14,7 Z M16,16 L19,16 L19,21 L16,21 L16,16 L16,16 Z M21,16 L24,16 L24,21 L21,21 L21,16 L21,16 Z M16,9 L19,9 L19,14 L16,14 L16,9 L16,9 Z M21,9 L24,9 L24,14 L21,14 L21,9 L21,9 Z" id="Shape-copy-copy" fill="url(#linearGradient-2)" sketch:type="MSShapeGroup"></path>
            <path d="M0,14 L0,26.29 C3.2,25.38 7.33,24.68 12,24.31 L12,14 L0,14 L0,14 Z M2,16 L5,16 L5,21 L2,21 L2,16 L2,16 Z M7,16 L10,16 L10,21 L7,21 L7,16 L7,16 Z" id="Shape-copy-copy" fill="url(#linearGradient-3)" sketch:type="MSShapeGroup"></path>
        </g>
        <path d="M49,7.1632 L49,18.8198154 L51.2240842,18.8198154 L51.2240842,14.1564308 L57.0200421,14.1564308 L57.0200421,12.1201231 L51.2240842,12.1201231 L51.2240842,9.20043077 L57.7583158,9.20043077 L57.7583158,7.1632 L49,7.1632 L49,7.1632 Z" id="Fill-1-copy" fill="#FFFFFF" sketch:type="MSShapeGroup"></path>
        <path d="M67.8112505,13.8591077 C67.8112505,15.8501846 66.8219453,16.9468 65.0239663,16.9468 C63.2426611,16.9468 62.2218611,15.7911077 62.2218611,13.7769538 L62.2218611,7.16403077 L59.9968505,7.16403077 L59.9968505,13.8591077 C59.9968505,17.1258769 61.8170611,18.9997231 64.9915453,18.9997231 C68.1975242,18.9997231 70.0362611,17.0898769 70.0362611,13.7612615 L70.0362611,7.16403077 L67.8112505,7.16403077 L67.8112505,13.8591077 L67.8112505,13.8591077 Z" id="Fill-2-copy" fill="#FFFFFF" sketch:type="MSShapeGroup"></path>
        <path d="M81.0407074,14.8853846 L75.0678232,7.20353846 L75.0381811,7.16384615 L73.0123284,7.16384615 L73.0123284,18.8195385 L75.2049179,18.8195385 L75.2049179,10.8690769 L81.3575074,18.7807692 L81.3880758,18.8195385 L83.2323705,18.8195385 L83.2323705,7.16384615 L81.0407074,7.16384615 L81.0407074,14.8853846 L81.0407074,14.8853846 Z" id="Fill-4-copy" fill="#FFFFFF" sketch:type="MSShapeGroup"></path>
        <path d="M90.7773979,16.7833231 L88.6144505,16.7833231 L88.6144505,9.20024615 L90.7773979,9.20024615 C93.0653979,9.20024615 94.6642189,10.7657846 94.6642189,13.0079385 C94.6642189,15.2657846 93.1015242,16.7833231 90.7773979,16.7833231 M90.7773979,7.16393846 L86.3903663,7.16393846 L86.3903663,18.8196308 L90.7773979,18.8196308 C94.3752084,18.8196308 96.9874189,16.3624 96.9874189,12.9756308 C96.9874189,9.60824615 94.3752084,7.16393846 90.7773979,7.16393846" id="Fill-6-copy" fill="#FFFFFF" sketch:type="MSShapeGroup"></path>
        <path d="M112.027453,18.82 L114.251537,18.82 L114.251537,7.16430769 L112.027453,7.16430769 L112.027453,18.82 L112.027453,18.82 Z" id="Fill-8-copy" fill="#FFFFFF" sketch:type="MSShapeGroup"></path>
        <path d="M122.085297,11.9764 C119.838981,11.4419385 119.438813,11.0616308 119.438813,10.2594769 C119.438813,9.49886154 120.149297,8.98747692 121.207149,8.98747692 C122.21776,8.98747692 123.218181,9.36593846 124.264918,10.1459385 L124.349213,10.2077846 L125.549718,8.52224615 L125.474686,8.46132308 C124.245465,7.47824615 122.859697,7.00009231 121.240497,7.00009231 C118.869128,7.00009231 117.213802,8.41424615 117.213802,10.4394769 C117.213802,12.6207077 118.585676,13.3647077 121.118223,13.9748615 C123.270055,14.4696308 123.633171,14.8887077 123.633171,15.6419385 C123.633171,16.4644 122.874518,16.9960923 121.69995,16.9960923 C120.410518,16.9960923 119.311907,16.5447077 118.139192,15.5320923 L118.059528,15.4637846 L116.714518,17.0588615 L116.788623,17.1253231 C118.154939,18.3419385 119.836202,18.9834769 121.650855,18.9834769 C124.20656,18.9834769 125.857255,17.5942462 125.857255,15.4453231 C125.857255,13.6314769 124.765128,12.6262462 122.085297,11.9764" id="Fill-10-copy" fill="#FFFFFF" sketch:type="MSShapeGroup"></path>
        <path d="M130.665482,16.8158154 L130.665482,13.9450461 L136.428093,13.9450461 L136.428093,11.9410462 L130.665482,11.9410462 L130.665482,9.1672 L137.166366,9.1672 L137.166366,7.1632 L128.440472,7.1632 L128.440472,18.8198154 L137.247882,18.8198154 L137.247882,16.8158154 L130.665482,16.8158154 L130.665482,16.8158154 Z" id="Fill-11-copy" fill="#FFFFFF" sketch:type="MSShapeGroup"></path>
        <path d="M106.554594,14.4400923 C108.282173,13.9157846 109.231646,12.6622462 109.231646,10.8982462 C109.231646,8.59424615 107.555941,7.16347692 104.859436,7.16347692 L99.6350147,7.16347692 L99.6350147,18.8200923 L101.860025,18.8200923 L101.860025,9.19978462 L104.696404,9.19978462 C106.164615,9.19978462 106.974215,9.84409231 106.974215,11.0127077 C106.974215,12.1397846 106.107183,12.8404 104.712152,12.8404 L104.23232,12.8404 L104.23232,14.8277846 L107.025162,18.7767077 L107.056657,18.8200923 L109.68832,18.8200923 L106.554594,14.4400923 L106.554594,14.4400923 Z" id="Fill-12-copy" fill="#FFFFFF" sketch:type="MSShapeGroup"></path>
        <g id="Shape-copy-copy" sketch:type="MSLayerGroup" transform="translate(28.000000, 30.000000)">
            <g id="path-4-link" fill="#E31837" sketch:type="MSShapeGroup">
                <path d="M3.55271368e-15,0 L3.55271368e-15,24.32 C4.66,24.69 8.79,25.39 11.99,26.3 L11.99,0 L3.55271368e-15,0 L3.55271368e-15,0 Z M2,16 L5,16 L5,21 L2,21 L2,16 L2,16 Z M7,16 L10,16 L10,21 L7,21 L7,16 L7,16 Z M2,9 L5,9 L5,14 L2,14 L2,9 L2,9 Z M7,9 L10,9 L10,14 L7,14 L7,9 L7,9 Z M2,2 L5,2 L5,7 L2,7 L2,2 L2,2 Z M7,2 L10,2 L10,7 L7,7 L7,2 L7,2 Z" id="path-4"></path>
            </g>
            <path d="M3.55271368e-15,0 L3.55271368e-15,24.32 C4.66,24.69 8.79,25.39 11.99,26.3 L11.99,0 L3.55271368e-15,0 L3.55271368e-15,0 Z M2,16 L5,16 L5,21 L2,21 L2,16 L2,16 Z M7,16 L10,16 L10,21 L7,21 L7,16 L7,16 Z M2,9 L5,9 L5,14 L2,14 L2,9 L2,9 Z M7,9 L10,9 L10,14 L7,14 L7,9 L7,9 Z M2,2 L5,2 L5,7 L2,7 L2,2 L2,2 Z M7,2 L10,2 L10,7 L7,7 L7,2 L7,2 Z" id="path-4" sketch:type="MSShapeGroup"></path>
        </g>
        <path d="M14,37 L14,54.17 C15.93,54.06 17.94,54 20,54 C22.06,54 24.07,54.06 26,54.18 L26,37 L14,37 L14,37 Z M16,46 L19,46 L19,51 L16,51 L16,46 L16,46 Z M21,46 L24,46 L24,51 L21,51 L21,46 L21,46 Z M16,39 L19,39 L19,44 L16,44 L16,39 L16,39 Z M21,39 L24,39 L24,44 L21,44 L21,39 L21,39 Z" id="Shape-copy-copy" fill="#F47735" sketch:type="MSShapeGroup"></path>
        <path d="M0,44 L0,56.29 C3.2,55.38 7.33,54.68 12,54.31 L12,44 L0,44 L0,44 Z M2,46 L5,46 L5,51 L2,51 L2,46 L2,46 Z M7,46 L10,46 L10,51 L7,51 L7,46 L7,46 Z" id="Shape-copy-copy" fill="#F6A01A" sketch:type="MSShapeGroup"></path>
        <path d="M49,37 L49,48.6566154 L51.2240842,48.6566154 L51.2240842,43.9932308 L57.0200421,43.9932308 L57.0200421,41.9569231 L51.2240842,41.9569231 L51.2240842,39.0372308 L57.7583158,39.0372308 L57.7583158,37 L49,37 L49,37 Z" id="Fill-1-copy" fill="#26333F" sketch:type="MSShapeGroup"></path>
        <path d="M67.8144,43.6950769 C67.8144,45.6861538 66.8250948,46.7827692 65.0271158,46.7827692 C63.2458106,46.7827692 62.2250106,45.6270769 62.2250106,43.612923 L62.2250106,37 L60,37 L60,43.6950769 C60,46.9618461 61.8202106,48.8356923 64.9946948,48.8356923 C68.2006737,48.8356923 70.0394106,46.9258461 70.0394106,43.5972307 L70.0394106,37 L67.8144,37 L67.8144,43.6950769 L67.8144,43.6950769 Z" id="Fill-2-copy" fill="#26333F" sketch:type="MSShapeGroup"></path>
        <path d="M81.028379,44.7215384 L75.0554948,37.0396923 L75.0258527,37 L73,37 L73,48.6556923 L75.1925895,48.6556923 L75.1925895,40.7052307 L81.345179,48.616923 L81.3757474,48.6556923 L83.2200421,48.6556923 L83.2200421,37 L81.028379,37 L81.028379,44.7215384 L81.028379,44.7215384 Z" id="Fill-4-copy" fill="#26333F" sketch:type="MSShapeGroup"></path>
        <path d="M90.3870316,46.6193846 L88.2240842,46.6193846 L88.2240842,39.0363077 L90.3870316,39.0363077 C92.6750316,39.0363077 94.2738526,40.6018461 94.2738526,42.844 C94.2738526,45.1018461 92.7111579,46.6193846 90.3870316,46.6193846 M90.3870316,37 L86,37 L86,48.6556923 L90.3870316,48.6556923 C93.9848421,48.6556923 96.5970526,46.1984615 96.5970526,42.8116923 C96.5970526,39.4443077 93.9848421,37 90.3870316,37" id="Fill-6-copy" fill="#26333F" sketch:type="MSShapeGroup"></path>
        <path d="M112,48.6556923 L114.224084,48.6556923 L114.224084,37 L112,37 L112,48.6556923 L112,48.6556923 Z" id="Fill-8-copy" fill="#26333F" sketch:type="MSShapeGroup"></path>
        <path d="M122.370779,41.9763077 C120.124463,41.4418462 119.724295,41.0615385 119.724295,40.2593846 C119.724295,39.4987692 120.434779,38.9873846 121.492631,38.9873846 C122.503242,38.9873846 123.503663,39.3658462 124.5504,40.1458462 L124.634695,40.2076923 L125.8352,38.5221538 L125.760168,38.4612308 C124.530947,37.4781538 123.145179,37 121.525979,37 C119.15461,37 117.499284,38.4141538 117.499284,40.4393846 C117.499284,42.6206154 118.871158,43.3646154 121.403705,43.9747692 C123.555537,44.4695385 123.918653,44.8886154 123.918653,45.6418462 C123.918653,46.4643077 123.16,46.996 121.985432,46.996 C120.696,46.996 119.597389,46.5446154 118.424674,45.532 L118.34501,45.4636923 L117,47.0587692 L117.074105,47.1252308 C118.440421,48.3418462 120.121684,48.9833846 121.936337,48.9833846 C124.492042,48.9833846 126.142737,47.5941539 126.142737,45.4452308 C126.142737,43.6313846 125.05061,42.6261539 122.370779,41.9763077" id="Fill-10-copy" fill="#26333F" sketch:type="MSShapeGroup"></path>
        <path d="M130.22501,46.6526154 L130.22501,43.7818461 L135.987621,43.7818461 L135.987621,41.7778462 L130.22501,41.7778462 L130.22501,39.004 L136.725894,39.004 L136.725894,37 L128,37 L128,48.6566154 L136.80741,48.6566154 L136.80741,46.6526154 L130.22501,46.6526154 L130.22501,46.6526154 Z" id="Fill-11-copy" fill="#26333F" sketch:type="MSShapeGroup"></path>
        <path d="M106.919579,44.2766154 C108.647158,43.7523077 109.596631,42.4987693 109.596631,40.7347693 C109.596631,38.4307692 107.920926,37 105.224421,37 L100,37 L100,48.6566154 L102.22501,48.6566154 L102.22501,39.0363077 L105.061389,39.0363077 C106.5296,39.0363077 107.3392,39.6806154 107.3392,40.8492308 C107.3392,41.9763077 106.472168,42.6769231 105.077137,42.6769231 L104.597305,42.6769231 L104.597305,44.6643077 L107.390147,48.6132308 L107.421642,48.6566154 L110.053305,48.6566154 L106.919579,44.2766154 L106.919579,44.2766154 Z" id="Fill-12-copy" fill="#26333F" sketch:type="MSShapeGroup"></path>
        <path d="M49,67.1632 L49,78.8198154 L51.2240842,78.8198154 L51.2240842,74.1564308 L57.0200421,74.1564308 L57.0200421,72.1201231 L51.2240842,72.1201231 L51.2240842,69.2004308 L57.7583158,69.2004308 L57.7583158,67.1632 L49,67.1632 L49,67.1632 Z" id="Fill-1-copy" fill="#62666A" sketch:type="MSShapeGroup"></path>
        <path d="M67.8112505,73.8591077 C67.8112505,75.8501846 66.8219453,76.9468 65.0239663,76.9468 C63.2426611,76.9468 62.2218611,75.7911077 62.2218611,73.7769538 L62.2218611,67.1640308 L59.9968505,67.1640308 L59.9968505,73.8591077 C59.9968505,77.1258769 61.8170611,78.9997231 64.9915453,78.9997231 C68.1975242,78.9997231 70.0362611,77.0898769 70.0362611,73.7612615 L70.0362611,67.1640308 L67.8112505,67.1640308 L67.8112505,73.8591077 L67.8112505,73.8591077 Z" id="Fill-2-copy" fill="#62666A" sketch:type="MSShapeGroup"></path>
        <path d="M81.0407074,74.8853846 L75.0678232,67.2035385 L75.0381811,67.1638461 L73.0123284,67.1638461 L73.0123284,78.8195385 L75.2049179,78.8195385 L75.2049179,70.8690769 L81.3575074,78.7807692 L81.3880758,78.8195385 L83.2323705,78.8195385 L83.2323705,67.1638461 L81.0407074,67.1638461 L81.0407074,74.8853846 L81.0407074,74.8853846 Z" id="Fill-4-copy" fill="#62666A" sketch:type="MSShapeGroup"></path>
        <path d="M90.7773979,76.7833231 L88.6144505,76.7833231 L88.6144505,69.2002461 L90.7773979,69.2002461 C93.0653979,69.2002461 94.6642189,70.7657846 94.6642189,73.0079385 C94.6642189,75.2657846 93.1015242,76.7833231 90.7773979,76.7833231 M90.7773979,67.1639385 L86.3903663,67.1639385 L86.3903663,78.8196308 L90.7773979,78.8196308 C94.3752084,78.8196308 96.9874189,76.3624 96.9874189,72.9756308 C96.9874189,69.6082461 94.3752084,67.1639385 90.7773979,67.1639385" id="Fill-6-copy" fill="#62666A" sketch:type="MSShapeGroup"></path>
        <path d="M112.027453,78.82 L114.251537,78.82 L114.251537,67.1643077 L112.027453,67.1643077 L112.027453,78.82 L112.027453,78.82 Z" id="Fill-8-copy" fill="#62666A" sketch:type="MSShapeGroup"></path>
        <path d="M122.085297,71.9764 C119.838981,71.4419385 119.438813,71.0616308 119.438813,70.2594769 C119.438813,69.4988615 120.149297,68.9874769 121.207149,68.9874769 C122.21776,68.9874769 123.218181,69.3659385 124.264918,70.1459385 L124.349213,70.2077846 L125.549718,68.5222461 L125.474686,68.4613231 C124.245465,67.4782461 122.859697,67.0000923 121.240497,67.0000923 C118.869128,67.0000923 117.213802,68.4142461 117.213802,70.4394769 C117.213802,72.6207077 118.585676,73.3647077 121.118223,73.9748615 C123.270055,74.4696308 123.633171,74.8887077 123.633171,75.6419385 C123.633171,76.4644 122.874518,76.9960923 121.699949,76.9960923 C120.410518,76.9960923 119.311907,76.5447077 118.139192,75.5320923 L118.059528,75.4637846 L116.714518,77.0588615 L116.788623,77.1253231 C118.154939,78.3419385 119.836202,78.9834769 121.650855,78.9834769 C124.20656,78.9834769 125.857255,77.5942462 125.857255,75.4453231 C125.857255,73.6314769 124.765128,72.6262462 122.085297,71.9764" id="Fill-10-copy" fill="#62666A" sketch:type="MSShapeGroup"></path>
        <path d="M130.665482,76.8158154 L130.665482,73.9450462 L136.428093,73.9450462 L136.428093,71.9410462 L130.665482,71.9410462 L130.665482,69.1672 L137.166366,69.1672 L137.166366,67.1632 L128.440472,67.1632 L128.440472,78.8198154 L137.247882,78.8198154 L137.247882,76.8158154 L130.665482,76.8158154 L130.665482,76.8158154 Z" id="Fill-11-copy" fill="#62666A" sketch:type="MSShapeGroup"></path>
        <path d="M106.554594,74.4400923 C108.282173,73.9157846 109.231646,72.6622462 109.231646,70.8982462 C109.231646,68.5942461 107.555941,67.1634769 104.859436,67.1634769 L99.6350147,67.1634769 L99.6350147,78.8200923 L101.860025,78.8200923 L101.860025,69.1997846 L104.696404,69.1997846 C106.164615,69.1997846 106.974215,69.8440923 106.974215,71.0127077 C106.974215,72.1397846 106.107183,72.8404 104.712152,72.8404 L104.23232,72.8404 L104.23232,74.8277846 L107.025162,78.7767077 L107.056657,78.8200923 L109.68832,78.8200923 L106.554594,74.4400923 L106.554594,74.4400923 Z" id="Fill-12-copy" fill="#62666A" sketch:type="MSShapeGroup"></path>
        <path d="M28,60 L28,84.32 C32.66,84.69 36.79,85.39 39.99,86.3 L39.99,60 L28,60 L28,60 Z M30,76 L33,76 L33,81 L30,81 L30,76 L30,76 Z M35,76 L38,76 L38,81 L35,81 L35,76 L35,76 Z M30,69 L33,69 L33,74 L30,74 L30,69 L30,69 Z M35,69 L38,69 L38,74 L35,74 L35,69 L35,69 Z M30,62 L33,62 L33,67 L30,67 L30,62 L30,62 Z M35,62 L38,62 L38,67 L35,67 L35,62 L35,62 Z" id="Shape-copy-2" fill="#62666A" sketch:type="MSShapeGroup"></path>
        <path d="M14,67 L14,84.17 C15.93,84.06 17.94,84 20,84 C22.06,84 24.07,84.06 26,84.18 L26,67 L14,67 L14,67 Z M16,76 L19,76 L19,81 L16,81 L16,76 L16,76 Z M21,76 L24,76 L24,81 L21,81 L21,76 L21,76 Z M16,69 L19,69 L19,74 L16,74 L16,69 L16,69 Z M21,69 L24,69 L24,74 L21,74 L21,69 L21,69 Z" id="Shape-copy-2" fill="#62666A" sketch:type="MSShapeGroup"></path>
        <path d="M0,74 L0,86.29 C3.2,85.38 7.33,84.68 12,84.31 L12,74 L0,74 L0,74 Z M2,76 L5,76 L5,81 L2,81 L2,76 L2,76 Z M7,76 L10,76 L10,81 L7,81 L7,76 L7,76 Z" id="Shape-copy-2" fill="#62666A" sketch:type="MSShapeGroup"></path>
        <g sketch:type="MSLayerGroup" transform="translate(0.000000, 90.000000)">
            <path d="M22.08,9.94117647 C11.7958095,9.94117647 3.42857143,18.3387941 3.42857143,28.6615588 C3.42857143,38.9839412 11.7958095,47.3823235 22.08,47.3823235 L99.8220952,47.3823235 C110.105524,47.3823235 118.473143,38.9839412 118.473143,28.6615588 C118.473143,18.3387941 110.105524,9.94117647 99.8220952,9.94117647 L22.08,9.94117647 L22.08,9.94117647 Z" id="Shape" sketch:type="MSShapeGroup"></path>
            <path d="M22.1447619,10.0061765 C11.8605714,10.0061765 3.49333333,18.4037941 3.49333333,28.7265588 C3.49333333,39.0489412 11.8605714,47.4473235 22.1447619,47.4473235 L99.8868571,47.4473235 C110.170286,47.4473235 118.537905,39.0489412 118.537905,28.7265588 C118.537905,18.4037941 110.170286,10.0061765 99.8868571,10.0061765 L22.1447619,10.0061765 L22.1447619,10.0061765 Z M99.8868571,49.0421176 L22.1447619,49.0421176 C10.984381,49.0421176 1.9047619,39.9279706 1.9047619,28.7265588 C1.9047619,17.5251471 10.984381,8.41176471 22.1447619,8.41176471 L99.8868571,8.41176471 C111.047238,8.41176471 120.126857,17.5251471 120.126857,28.7265588 C120.126857,39.9279706 111.047238,49.0421176 99.8868571,49.0421176 L99.8868571,49.0421176 L99.8868571,49.0421176 Z" id="Fill-5" fill="#9CA0A6" sketch:type="MSShapeGroup"></path>
            <path d="M90.4175238,25.8887353 C88.8693333,25.8887353 87.6129524,24.6296471 87.6129524,23.0753824 C87.6129524,21.5195882 88.8693333,20.2601176 90.4175238,20.2601176 C91.9657143,20.2601176 93.2224762,21.5195882 93.2224762,23.0753824 C93.2224762,24.6296471 91.9657143,25.8887353 90.4175238,25.8887353 M90.4175238,17.5882353 C87.399619,17.5882353 84.952381,20.0448529 84.952381,23.0753824 C84.952381,26.1043824 87.399619,28.5590882 90.4175238,28.5590882 C93.4373333,28.5590882 95.8830476,26.1043824 95.8830476,23.0753824 C95.8830476,20.0448529 93.4373333,17.5882353 90.4175238,17.5882353" id="Fill-7" fill="#3A4046" sketch:type="MSShapeGroup"></path>
            <path d="M65.2742857,25.8887353 C63.727619,25.8887353 62.471619,24.6296471 62.471619,23.0753824 C62.471619,21.5195882 63.727619,20.2601176 65.2742857,20.2601176 C66.824381,20.2601176 68.0792381,21.5195882 68.0792381,23.0753824 C68.0792381,24.6296471 66.824381,25.8887353 65.2742857,25.8887353 M65.2742857,17.5882353 C62.256381,17.5882353 59.8095238,20.0448529 59.8095238,23.0753824 C59.8095238,26.1043824 62.256381,28.5590882 65.2742857,28.5590882 C68.2940952,28.5590882 70.7417143,26.1043824 70.7417143,23.0753824 C70.7417143,20.0448529 68.2940952,17.5882353 65.2742857,17.5882353" id="Fill-9" fill="#3A4046" sketch:type="MSShapeGroup"></path>
            <path d="M84.6518095,25.7292941 C84.3062857,25.8302353 83.7775238,25.9296471 83.576381,25.9296471 C82.6422857,25.9296471 82.4388571,25.6065588 82.4388571,24.7091765 L82.4388571,19.6410882 L84.6735238,19.6410882 L84.6735238,17.5232353 L82.4388571,17.5232353 L82.4388571,14.5294118 L79.9245714,14.5294118 L79.3961905,17.5232353 L77.6445714,17.5232353 L77.6445714,17.5247647 L77.5020952,17.5247647 C76.0697143,17.5316471 74.9893333,18.4087647 74.296381,19.7825588 L73.4220952,17.5232353 L71.6190476,17.5232353 L71.6190476,28.0494118 L74.7005714,28.0494118 L74.7005714,23.4695882 C74.7005714,21.1613235 76.0594286,19.6865882 77.6700952,19.6410882 L79.3558095,19.6410882 L79.3558095,24.8739706 C79.3558095,27.3370882 80.6137143,28.2532059 82.6620952,28.2532059 C83.7192381,28.2532059 84.5295238,28.0291471 85.015619,27.8674118 L84.6518095,25.7292941 L84.6518095,25.7292941 Z" id="Fill-11" fill="#3A4046" sketch:type="MSShapeGroup"></path>
            <path d="M99.7577143,20.9185294 L99.7577143,28.1144118 L96.7619048,28.1144118 L96.7619048,17.5882353 L98.5801905,17.5882353 L99.1893333,19.1960294" id="Fill-13" fill="#3A4046" sketch:type="MSShapeGroup"></path>
            <path d="M99.047619,19.4522059 C99.9584762,18.3915588 101.204571,17.5882353 102.664381,17.5882353 C105.160381,17.5882353 106.187048,19.5852647 106.187048,21.4373824 L106.187048,28.3606471 L103.102095,28.3606471 L103.102095,21.5264706 C103.102095,20.6241176 102.353905,20.1343235 101.542095,20.1343235 C100.678095,20.1343235 100.122667,20.631 99.6346667,21.1613235" id="Fill-15" fill="#3A4046" sketch:type="MSShapeGroup"></path>
            <path d="M48,13.7647059 L51.4339048,13.7647059 L56.1493333,22.7790588 L56.1493333,13.7647059 L58.9935238,13.7647059 L58.9935238,28.1029412 L55.8822857,28.1029412 L50.8453333,18.1912059 L50.8453333,28.1029412 L48,28.1029412 L48,13.7647059 L48,13.7647059 Z" id="Fill-17" fill="#3A4046" sketch:type="MSShapeGroup"></path>
            <path d="M115.209524,8.41176471 L115.209524,8.92526471 L114.461333,8.92526471 L114.461333,11.4507059 L113.877333,11.4507059 L113.877333,8.92526471 L113.142857,8.92526471 L113.142857,8.41176471 L115.209524,8.41176471 L115.209524,8.41176471 Z" id="Fill-19" fill="#9CA0A6" sketch:type="MSShapeGroup"></path>
            <path d="M115.809524,11.4507059 L115.809524,8.41176471 L116.599619,8.41176471 L117.124571,10.4019118 L117.658286,8.41176471 L118.456762,8.41176471 L118.456762,11.4507059 L117.975238,11.4507059 L117.975238,9.07323529 L117.961524,9.07323529 L117.349714,11.4507059 L116.921905,11.4507059 L116.304381,9.07323529 L116.291048,9.07323529 L116.291048,11.4507059 L115.809524,11.4507059 L115.809524,11.4507059 Z" id="Fill-21" fill="#9CA0A6" sketch:type="MSShapeGroup"></path>
            <path d="M47.2380952,40.8479118 L47.9508571,39.7352647 C48.5299048,40.1646471 49.3988571,40.5634412 50.4586667,40.5634412 C51.4887619,40.5634412 52.1245714,40.0950588 52.1245714,39.2817941 C52.1245714,38.3461765 51.3211429,38.0984118 50.0007619,37.6372941 C48.8167619,37.2197647 47.6525714,36.6202353 47.6525714,34.9367353 C47.6525714,33.3591471 48.8921905,32.5 50.559619,32.5 C51.6681905,32.5 52.4849524,32.7190882 53.1428571,33.1079412 L52.5725714,34.2917059 C52.0205714,34.0037941 51.3611429,33.8084118 50.5862857,33.8084118 C49.6571429,33.8084118 49.1001905,34.1601765 49.1001905,34.8996471 C49.1001905,35.7683529 49.7459048,35.9889706 50.960381,36.3896765 C52.2270476,36.8018529 53.6209524,37.3899118 53.6209524,39.2550294 C53.6209524,40.833 52.4971429,41.8733824 50.4807619,41.8733824 C48.984381,41.8733824 47.8853333,41.3549118 47.2380952,40.8479118" id="Fill-23" fill="#9CA0A6" sketch:type="MSShapeGroup"></path>
            <path d="M56.3809524,32.5 L61.7798095,32.5 L61.7798095,33.7594706 L57.9173333,33.7594706 L57.9173333,36.2462941 L60.967619,36.2462941 L60.967619,37.4786176 L57.9173333,37.4786176 L57.9173333,40.3527647 L62.0144762,40.3527647 L62.0144762,41.6103235 L56.3809524,41.6103235 L56.3809524,32.5 L56.3809524,32.5 Z" id="Fill-25" fill="#9CA0A6" sketch:type="MSShapeGroup"></path>
            <path d="M64,37.2040882 C64,34.5455882 65.2681905,32.5 67.799619,32.5 C68.9333333,32.5 69.8293333,32.8601765 70.4601905,33.5977353 L69.5641905,34.6381176 C69.0224762,34.1058824 68.5630476,33.8451176 67.8247619,33.8451176 C66.3386667,33.8451176 65.6525714,35.0655882 65.6525714,37.3203235 C65.6525714,39.4366471 66.3767619,40.5091471 67.8380952,40.5091471 C68.6499048,40.5091471 69.2201905,40.0812941 69.720381,39.5494412 L70.6247619,40.5611471 C69.9668571,41.3407647 69.1432381,41.8710882 67.8247619,41.8710882 C65.2144762,41.8710882 64,39.8740588 64,37.2040882" id="Fill-27" fill="#9CA0A6" sketch:type="MSShapeGroup"></path>
            <path d="M73.1428571,38.1236471 L73.1428571,32.5 L74.6910476,32.5 L74.6910476,38.3744706 C74.6910476,39.6270588 75,40.4468235 76.3169524,40.4468235 C77.6220952,40.4468235 77.9455238,39.6270588 77.9455238,38.3744706 L77.9455238,32.5 L79.5089524,32.5 L79.5089524,38.1236471 C79.5089524,40.3810588 78.6434286,41.73 76.3051429,41.73 C74.0053333,41.73 73.1428571,40.3810588 73.1428571,38.1236471" id="Fill-29" fill="#9CA0A6" sketch:type="MSShapeGroup"></path>
            <path d="M85.5721905,36.5575294 C86.7230476,36.5575294 87.3150476,36.1820588 87.3150476,35.1298235 C87.3150476,34.1181176 86.7112381,33.7575588 85.6624762,33.7575588 L84.2034286,33.7575588 L84.2034286,36.5575294 L85.5721905,36.5575294 L85.5721905,36.5575294 Z M89.0598095,41.6118529 L87.3805714,41.6118529 L85.6377143,37.7477941 L84.2034286,37.7477941 L84.2034286,41.6118529 L82.6666667,41.6118529 L82.6666667,32.5 L85.6278095,32.5 C87.4609524,32.5 88.8921905,33.1599412 88.8921905,35.1565882 C88.8921905,36.5189118 88.0784762,37.2025588 87.1725714,37.5275588 L89.0598095,41.6118529 L89.0598095,41.6118529 Z" id="Fill-31" fill="#9CA0A6" sketch:type="MSShapeGroup"></path>
            <path d="M91.4285714,32.5 L96.8270476,32.5 L96.8270476,33.7594706 L92.9634286,33.7594706 L92.9634286,36.2462941 L96.0099048,36.2462941 L96.0099048,37.4786176 L92.9634286,37.4786176 L92.9634286,40.3527647 L97.0582857,40.3527647 L97.0582857,41.6103235 L91.4285714,41.6103235 L91.4285714,32.5 L91.4285714,32.5 Z" id="Fill-33" fill="#9CA0A6" sketch:type="MSShapeGroup"></path>
            <path d="M101.986667,40.3527647 C104.105905,40.3527647 104.830476,39.3712647 104.830476,37.0224706 C104.830476,34.9615882 104.261714,33.7575588 102.177905,33.7575588 L101.352762,33.7575588 L101.352762,40.3527647 L101.986667,40.3527647 L101.986667,40.3527647 Z M99.8095238,32.5 L102.07581,32.5 C105.035048,32.5 106.457143,34.1077941 106.457143,37.0224706 C106.457143,39.9922059 105.009905,41.6118529 102.154286,41.6118529 L99.8095238,41.6118529 L99.8095238,32.5 L99.8095238,32.5 Z" id="Fill-35" fill="#9CA0A6" sketch:type="MSShapeGroup"></path>
            <path d="M21.839619,13.8155588 C17.8537143,13.8155588 14.104381,15.3747941 11.2811429,18.2049706 C8.46133333,21.0366765 6.90819048,24.7997941 6.90819048,28.8003529 C6.90819048,32.8001471 8.46133333,36.5632647 11.2811429,39.3968824 C14.1024762,42.2251471 17.8518095,43.7843824 21.839619,43.7859118 C25.8251429,43.7843824 29.5744762,42.2251471 32.3977143,39.3949706 C35.2140952,36.5632647 36.767619,32.8001471 36.7691429,28.8003529 C36.767619,24.7997941 35.2140952,21.0366765 32.3961905,18.2034412 C29.5729524,15.3747941 25.823619,13.8155588 21.839619,13.8155588 M21.839619,50.7198824 C9.79847619,50.7198824 0,40.8853824 0,28.8003529 C0,16.7149412 9.79847619,6.88235294 21.839619,6.88235294 C33.8792381,6.88235294 43.6754286,16.7149412 43.6773333,28.8003529 C43.6754286,40.8853824 33.8792381,50.7198824 21.839619,50.7198824" id="Fill-37" fill="#9CA0A6" sketch:type="MSShapeGroup"></path>
            <path d="M47.4167619,3.44117647 L45.7142857,3.44117647 L45.7142857,5.15029412 L47.4167619,5.15029412 L47.4167619,3.44117647 L47.4167619,3.44117647 Z" id="Fill-39" fill="#9CA0A6" sketch:type="MSShapeGroup"></path>
            <path d="M47.4167619,0 L45.7142857,0 L45.7142857,1.71255882 L47.4167619,1.71255882 L47.4167619,0 L47.4167619,0 Z" id="Fill-41" fill="#9CA0A6" sketch:type="MSShapeGroup"></path>
            <path d="M42.7329524,5.35294118 L41.1428571,5.35294118 L41.1428571,7.02152941 L42.7329524,7.02152941 L42.7329524,5.35294118 L42.7329524,5.35294118 Z" id="Fill-42" fill="#9CA0A6" sketch:type="MSShapeGroup"></path>
            <path d="M39.3180952,8.41176471 L37.7142857,8.41176471 L37.7142857,10.0077059 L39.3180952,10.0077059 L39.3180952,8.41176471 L39.3180952,8.41176471 Z" id="Fill-43" fill="#3A4046" sketch:type="MSShapeGroup"></path>
            <path d="M44.4499048,6.88235294 L42.6666667,6.88235294 L42.6666667,8.49014706 L44.4499048,8.49014706 L44.4499048,6.88235294 L44.4499048,6.88235294 Z" id="Fill-44" fill="#3A4046" sketch:type="MSShapeGroup"></path>
            <path d="M36.1904762,8.41138235 L37.7874286,8.41138235 L37.7874286,6.88235294 L36.1904762,6.88235294 L36.1904762,8.41138235 L36.1904762,8.41138235 Z" id="Fill-45" fill="#3A4046" sketch:type="MSShapeGroup"></path>
            <path d="M42.7329524,8.41176471 L41.1428571,8.41176471 L41.1428571,10.0077059 L42.7329524,10.0077059 L42.7329524,8.41176471 L42.7329524,8.41176471 Z" id="Fill-46" fill="#3A4046" sketch:type="MSShapeGroup"></path>
            <path d="M45.8750476,1.91176471 L44.1904762,1.91176471 L44.1904762,3.60558824 L45.8750476,3.60558824 L45.8750476,1.91176471 L45.8750476,1.91176471 Z" id="Fill-47" fill="#3A4046" sketch:type="MSShapeGroup"></path>
            <path d="M44.2491429,3.44117647 L41.1428571,3.44117647 L41.1428571,5.13805882 L44.2491429,5.13805882 L44.2491429,3.44117647 L44.2491429,3.44117647 Z" id="Fill-48" fill="#3A4046" sketch:type="MSShapeGroup"></path>
            <path d="M39.6190476,8.62932353 L41.1672381,8.62932353 L41.1672381,5.35294118 L39.6190476,5.35294118 L39.6190476,8.62932353 L39.6190476,8.62932353 Z" id="Fill-49" fill="#3A4046" sketch:type="MSShapeGroup"></path>
            <path d="M39.5468788,9.94117647 L39.5468788,11.5493529 L37.9430693,11.5493529 L37.9430693,9.94117647 L35.2824979,9.94117647 L35.2824979,11.0997059 L33.8565931,11.0997059 L33.8565931,12.5289412 L35.4485931,12.5289412 L35.4485931,14.1218235 L33.8565931,14.1218235 L33.8565931,12.5289412 L32.1640217,12.5289412 L32.1640217,15.0276176 L30.5636407,15.0276176 L30.5636407,16.6220294 L29.5019264,16.6220294 L29.5019264,18.2233235 L28.3339264,18.2233235 C27.0223074,20.1813529 23.7343074,26.2848529 22.7415455,28.7697647 C19.1583074,23.7659118 16.3769741,21.7826471 14.1861169,21.0653529 C13.0051645,20.7082353 11.5811645,21.9998235 13.5434502,24.0320294 C18.0508788,29.0072059 19.4703074,33.1266765 20.8405931,36.413 C21.5655455,38.1458235 24.8146883,38.4153824 25.4672598,36.6504412 C26.8546883,32.9213529 28.8661169,28.7311471 31.2482122,25.2895882 L31.2482122,23.5066765 L32.5198312,23.5066765 L32.5198312,21.8985 L33.8565931,21.8985 L33.8565931,20.0349118 L35.4535455,20.0349118 L35.4535455,18.2382353 L33.8383074,18.2382353 L33.8383074,16.6052059 L35.4535455,16.6052059 L35.4535455,18.2382353 L37.033736,18.2382353 L37.0306883,16.6220294 L38.2969741,16.6220294 L38.2969741,14.6708824 L39.7228788,14.6708824 L39.7228788,13.3288235 L41.0950693,13.3288235 L41.0950693,9.94117647 L39.5468788,9.94117647 L39.5468788,9.94117647 Z" id="Fill-50" fill="#3A4046" sketch:type="MSShapeGroup"></path>
            <path d="M12.9417143,60.8545294 L12.9417143,60.8350294 C12.9417143,59.8240882 12.2598095,59.1591765 11.4495238,59.1591765 C10.6392381,59.1591765 9.92761905,59.8336471 9.92761905,60.8350294 L9.92761905,60.8545294 C9.92761905,61.8662353 10.6392381,62.5319118 11.4495238,62.5319118 C12.2689524,62.5319118 12.9417143,61.8865 12.9417143,60.8545294 L12.9417143,60.8545294 L12.9417143,60.8545294 Z M8.76190476,58.2266176 L9.95771429,58.2266176 L9.95771429,59.1002941 C10.3428571,58.5542941 10.8860952,58.1176471 11.7264762,58.1176471 C12.9615238,58.1176471 14.1569524,59.1002941 14.1569524,60.8350294 L14.1569524,60.8545294 C14.1569524,62.5907941 12.9710476,63.5719118 11.7264762,63.5719118 C10.8670476,63.5719118 10.3234286,63.1360294 9.95771429,62.6496765 L9.95771429,65.0508529 L8.76190476,65.0508529 L8.76190476,58.2266176 L8.76190476,58.2266176 Z" id="Fill-51" fill="#9CA0A6" sketch:type="MSShapeGroup"></path>
            <path d="M19.2255238,60.8747941 L19.2255238,60.8545294 C19.2255238,59.9322941 18.5634286,59.1691176 17.6247619,59.1691176 C16.6655238,59.1691176 16.0533333,59.9227353 16.0533333,60.8350294 L16.0533333,60.8545294 C16.0533333,61.7672059 16.7154286,62.5414706 17.6441905,62.5414706 C18.6125714,62.5414706 19.2255238,61.7775294 19.2255238,60.8747941 M14.8571429,60.8747941 L14.8571429,60.8545294 C14.8571429,59.358 16.0434286,58.1176471 17.6441905,58.1176471 C19.2449524,58.1176471 20.4209524,59.3377353 20.4209524,60.8350294 L20.4209524,60.8545294 C20.4209524,62.3430294 19.2354286,63.5826176 17.6247619,63.5826176 C16.0335238,63.5826176 14.8571429,62.3632941 14.8571429,60.8747941" id="Fill-52" fill="#9CA0A6" sketch:type="MSShapeGroup"></path>
            <path d="M21.3333333,58.1371471 L22.5592381,58.1371471 L23.6060952,61.7285882 L24.7622857,58.1176471 L25.7801905,58.1176471 L26.9459048,61.7285882 L28.0133333,58.1371471 L29.2087619,58.1371471 L27.4998095,63.414 L26.432,63.414 L25.2666667,59.8332647 L24.0899048,63.414 L23.023619,63.414 L21.3333333,58.1371471 L21.3333333,58.1371471 Z" id="Fill-53" fill="#9CA0A6" sketch:type="MSShapeGroup"></path>
            <path d="M33.5782857,60.4782941 C33.4994286,59.7047941 33.0449524,59.1002941 32.2540952,59.1002941 C31.5226667,59.1002941 31.0095238,59.6657941 30.9005714,60.4782941 L33.5782857,60.4782941 L33.5782857,60.4782941 Z M29.7142857,60.8652353 L29.7142857,60.8449706 C29.7142857,59.3476765 30.7721905,58.1176471 32.264,58.1176471 C33.9241905,58.1176471 34.7641905,59.4268235 34.7641905,60.9352059 C34.7641905,61.0437941 34.7542857,61.1527647 34.7447619,61.2720588 L30.9104762,61.2720588 C31.0388571,62.1243235 31.6411429,62.6007353 32.4121905,62.6007353 C32.9954286,62.6007353 33.4106667,62.3831765 33.8251429,61.9763529 L34.5264762,62.6007353 C34.0327619,63.1956765 33.3508571,63.5826176 32.3927619,63.5826176 C30.8807619,63.5826176 29.7142857,62.4810588 29.7142857,60.8652353 L29.7142857,60.8652353 L29.7142857,60.8652353 Z" id="Fill-54" fill="#9CA0A6" sketch:type="MSShapeGroup"></path>
            <path d="M35.8095238,58.2190203 L37.0053333,58.2190203 L37.0053333,59.3989615 C37.3310476,58.616285 37.9337143,58.0809909 38.8525714,58.1196086 L38.8525714,59.3894027 L38.784,59.3894027 C37.736,59.3894027 37.0053333,60.0741968 37.0053333,61.4629027 L37.0053333,63.4561086 L35.8095238,63.4561086 L35.8095238,58.2190203 L35.8095238,58.2190203 Z" id="Fill-55" fill="#9CA0A6" sketch:type="MSShapeGroup"></path>
            <path d="M43.4830476,60.4782941 C43.4041905,59.7047941 42.9497143,59.1002941 42.1588571,59.1002941 C41.4274286,59.1002941 40.9142857,59.6657941 40.8060952,60.4782941 L43.4830476,60.4782941 L43.4830476,60.4782941 Z M39.6190476,60.8652353 L39.6190476,60.8449706 C39.6190476,59.3476765 40.6773333,58.1176471 42.1691429,58.1176471 C43.8293333,58.1176471 44.6689524,59.4268235 44.6689524,60.9352059 C44.6689524,61.0437941 44.6590476,61.1527647 44.6499048,61.2720588 L40.8152381,61.2720588 C40.944,62.1243235 41.5466667,62.6007353 42.3169524,62.6007353 C42.9005714,62.6007353 43.3158095,62.3831765 43.7302857,61.9763529 L44.432,62.6007353 C43.9375238,63.1956765 43.256,63.5826176 42.2979048,63.5826176 C40.7859048,63.5826176 39.6190476,62.4810588 39.6190476,60.8652353 L39.6190476,60.8652353 L39.6190476,60.8652353 Z" id="Fill-56" fill="#9CA0A6" sketch:type="MSShapeGroup"></path>
            <path d="M49.9337143,60.8373235 L49.9337143,60.8178235 C49.9337143,59.8068824 49.2220952,59.1419706 48.4217143,59.1419706 C47.6015238,59.1419706 46.92,59.7770588 46.92,60.8178235 L46.92,60.8373235 C46.92,61.8490294 47.6114286,62.5147059 48.4217143,62.5147059 C49.2220952,62.5147059 49.9337143,61.8394706 49.9337143,60.8373235 M45.7142857,60.8373235 L45.7142857,60.8178235 C45.7142857,59.0830882 46.8899048,58.1004412 48.1348571,58.1004412 C48.9942857,58.1004412 49.5379048,58.5370882 49.9135238,59.0226765 L49.9135238,56.2058824 L51.1097143,56.2058824 L51.1097143,63.4465 L49.9135238,63.4465 L49.9135238,62.5735882 C49.528381,63.1188235 48.9847619,63.5547059 48.1348571,63.5547059 C46.9097143,63.5547059 45.7142857,62.5735882 45.7142857,60.8373235" id="Fill-57" fill="#9CA0A6" sketch:type="MSShapeGroup"></path>
            <path d="M59.7992381,60.8373235 L59.7992381,60.8178235 C59.7992381,59.8068824 59.1169524,59.1419706 58.3070476,59.1419706 C57.496381,59.1419706 56.7851429,59.8164412 56.7851429,60.8178235 L56.7851429,60.8373235 C56.7851429,61.8490294 57.496381,62.5147059 58.3070476,62.5147059 C59.1268571,62.5147059 59.7992381,61.8692941 59.7992381,60.8373235 M56.8148571,62.6324706 L56.8148571,63.4465 L55.6190476,63.4465 L55.6190476,56.2058824 L56.8148571,56.2058824 L56.8148571,59.0830882 C57.2,58.5370882 57.743619,58.1004412 58.583619,58.1004412 C59.8186667,58.1004412 61.0144762,59.0830882 61.0144762,60.8178235 L61.0144762,60.8373235 C61.0144762,62.5735882 59.8281905,63.5547059 58.583619,63.5547059 C57.7241905,63.5547059 57.1805714,63.1188235 56.8148571,62.6324706" id="Fill-58" fill="#9CA0A6" sketch:type="MSShapeGroup"></path>
            <path d="M61.6598095,64.6535882 L62.064,63.7611765 C62.2819048,63.8808529 62.5184762,63.96 62.7657143,63.96 C63.1024762,63.96 63.3093333,63.8105 63.5066667,63.3551176 L61.3333333,58.1176471 L62.6072381,58.1176471 L64.0902857,62.0054118 L65.4441905,58.1176471 L66.6887619,58.1176471 L64.6137143,63.5034706 C64.1992381,64.5744412 63.7344762,64.9717059 62.8940952,64.9717059 C62.3912381,64.9717059 62.0255238,64.8524118 61.6598095,64.6535882" id="Fill-59" fill="#9CA0A6" sketch:type="MSShapeGroup"></path>
            <path d="M70.4761905,56.5882353 L71.8194286,56.5882353 L73.9051429,61.9239706 L75.9794286,56.5882353 L77.2940952,56.5882353 L74.4190476,63.5803235 L73.352381,63.5803235 L70.4761905,56.5882353 L70.4761905,56.5882353 Z" id="Fill-60" fill="#3A4046" sketch:type="MSShapeGroup"></path>
            <path d="M81.1969524,60.4782941 C81.1180952,59.7047941 80.663619,59.1002941 79.8731429,59.1002941 C79.1417143,59.1002941 78.6285714,59.6657941 78.519619,60.4782941 L81.1969524,60.4782941 L81.1969524,60.4782941 Z M77.3333333,60.8652353 L77.3333333,60.8449706 C77.3333333,59.3476765 78.3908571,58.1176471 79.8834286,58.1176471 C81.543619,58.1176471 82.3828571,59.4268235 82.3828571,60.9352059 C82.3828571,61.0437941 82.3729524,61.1527647 82.3634286,61.2720588 L78.5295238,61.2720588 C78.6582857,62.1243235 79.2609524,62.6007353 80.0308571,62.6007353 C80.6148571,62.6007353 81.0293333,62.3831765 81.4438095,61.9763529 L82.1462857,62.6007353 C81.6514286,63.1956765 80.9702857,63.5826176 80.0114286,63.5826176 C78.4994286,63.5826176 77.3333333,62.4810588 77.3333333,60.8652353 L77.3333333,60.8652353 L77.3333333,60.8652353 Z" id="Fill-61" fill="#3A4046" sketch:type="MSShapeGroup"></path>
            <path d="M83.8095238,58.2190203 L85.0053333,58.2190203 L85.0053333,59.3989615 C85.3314286,58.616285 85.9344762,58.0809909 86.8537143,58.1196086 L86.8537143,59.3894027 L86.784381,59.3894027 C85.7367619,59.3894027 85.0053333,60.0741968 85.0053333,61.4629027 L85.0053333,63.4561086 L83.8095238,63.4561086 L83.8095238,58.2190203 L83.8095238,58.2190203 Z" id="Fill-62" fill="#3A4046" sketch:type="MSShapeGroup"></path>
            <path d="M87.6681905,58.149 L88.864381,58.149 L88.864381,63.3860882 L87.6681905,63.3860882 L87.6681905,58.149 L87.6681905,58.149 Z M87.6190476,56.2058824 L88.9028571,56.2058824 L88.9028571,57.3452941 L87.6190476,57.3452941 L87.6190476,56.2058824 L87.6190476,56.2058824 Z" id="Fill-63" fill="#3A4046" sketch:type="MSShapeGroup"></path>
            <path d="M90.2857143,62.6190882 L91.0171429,61.7454118 C91.679619,62.3212353 92.3413333,62.6473824 93.2007619,62.6473824 C93.952381,62.6473824 94.4266667,62.3009706 94.4266667,61.7752353 L94.4266667,61.7549706 C94.4266667,61.2598235 94.1497143,60.9910294 92.8655238,60.6947059 C91.3927619,60.3375882 90.5626667,59.9017059 90.5626667,58.6215882 L90.5626667,58.6013235 C90.5626667,57.4110588 91.5500952,56.5882353 92.9241905,56.5882353 C93.9321905,56.5882353 94.7325714,56.8956471 95.4339048,57.4611471 L94.7824762,58.3826176 C94.159619,57.9165294 93.536381,57.6687647 92.904,57.6687647 C92.1927619,57.6687647 91.7786667,58.0362059 91.7786667,58.4923529 L91.7786667,58.5126176 C91.7786667,59.0479118 92.0937143,59.2861176 93.4194286,59.6034706 C94.8811429,59.9605882 95.6419048,60.4855588 95.6419048,61.6372059 L95.6419048,61.6555588 C95.6419048,62.9559412 94.623619,63.7286765 93.1706667,63.7286765 C92.1139048,63.7286765 91.1161905,63.362 90.2857143,62.6190882" id="Fill-64" fill="#3A4046" sketch:type="MSShapeGroup"></path>
            <path d="M96.8118095,58.149 L98.0068571,58.149 L98.0068571,63.3860882 L96.8118095,63.3860882 L96.8118095,58.149 L96.8118095,58.149 Z M96.7619048,56.2058824 L98.0468571,56.2058824 L98.0468571,57.3452941 L96.7619048,57.3452941 L96.7619048,56.2058824 L96.7619048,56.2058824 Z" id="Fill-65" fill="#3A4046" sketch:type="MSShapeGroup"></path>
            <path d="M103.647238,60.5968235 L103.647238,60.5765588 C103.647238,59.7147353 102.946286,59.1285882 102.11581,59.1285882 C101.285714,59.1285882 100.633524,59.7044118 100.633524,60.5677647 L100.633524,60.5872647 C100.633524,61.4502353 101.295619,62.0352353 102.11581,62.0352353 C102.946286,62.0352353 103.647238,61.4406765 103.647238,60.5968235 M99.6853333,64.4455882 L100.129905,63.5436176 C100.683429,63.8900294 101.276571,64.0976471 101.98781,64.0976471 C103.055238,64.0976471 103.637333,63.5436176 103.637333,62.4913824 L103.637333,62.0853235 C103.203048,62.6496765 102.659429,63.0469412 101.800381,63.0469412 C100.574476,63.0469412 99.4285714,62.1342647 99.4285714,60.5968235 L99.4285714,60.5765588 C99.4285714,59.0299412 100.584381,58.1176471 101.800381,58.1176471 C102.679619,58.1176471 103.223238,58.5244706 103.62819,59.0100588 L103.62819,58.2266176 L104.823238,58.2266176 L104.823238,62.3919706 C104.823238,63.2748235 104.596952,63.9290294 104.161905,64.3656765 C103.687619,64.8417059 102.956571,65.0707353 102.017143,65.0707353 C101.158095,65.0707353 100.356952,64.8520294 99.6853333,64.4455882" id="Fill-66" fill="#3A4046" sketch:type="MSShapeGroup"></path>
            <path d="M106.285714,58.2266176 L107.480762,58.2266176 L107.480762,59.0398824 C107.817524,58.5447353 108.30019,58.1176471 109.111238,58.1176471 C110.287619,58.1176471 110.969143,58.9114118 110.969143,60.1307353 L110.969143,63.4637059 L109.772952,63.4637059 L109.772952,60.4878529 C109.772952,59.6745882 109.368381,59.2085 108.657143,59.2085 C107.964571,59.2085 107.480762,59.6948529 107.480762,60.5081176 L107.480762,63.4637059 L106.285714,63.4637059 L106.285714,58.2266176 L106.285714,58.2266176 Z" id="Fill-67" fill="#3A4046" sketch:type="MSShapeGroup"></path>
        </g>
        <path d="M22.08,164.941176 C11.7958095,164.941176 3.42857143,173.338794 3.42857143,183.661559 C3.42857143,193.983941 11.7958095,202.382323 22.08,202.382323 L99.8220952,202.382323 C110.105524,202.382323 118.473143,193.983941 118.473143,183.661559 C118.473143,173.338794 110.105524,164.941176 99.8220952,164.941176 L22.08,164.941176 L22.08,164.941176 Z" id="Shape" sketch:type="MSShapeGroup"></path>
        <path d="M22.1447619,165.006177 C11.8605714,165.006177 3.49333333,173.403794 3.49333333,183.726559 C3.49333333,194.048941 11.8605714,202.447324 22.1447619,202.447324 L99.8868571,202.447324 C110.170286,202.447324 118.537905,194.048941 118.537905,183.726559 C118.537905,173.403794 110.170286,165.006177 99.8868571,165.006177 L22.1447619,165.006177 L22.1447619,165.006177 Z M99.8868571,204.042118 L22.1447619,204.042118 C10.984381,204.042118 1.9047619,194.927971 1.9047619,183.726559 C1.9047619,172.525147 10.984381,163.411765 22.1447619,163.411765 L99.8868571,163.411765 C111.047238,163.411765 120.126857,172.525147 120.126857,183.726559 C120.126857,194.927971 111.047238,204.042118 99.8868571,204.042118 L99.8868571,204.042118 L99.8868571,204.042118 Z" id="Fill-5" fill="#9CA0A6" sketch:type="MSShapeGroup"></path>
        <path d="M90.4175238,180.888735 C88.8693333,180.888735 87.6129524,179.629647 87.6129524,178.075382 C87.6129524,176.519588 88.8693333,175.260118 90.4175238,175.260118 C91.9657143,175.260118 93.2224762,176.519588 93.2224762,178.075382 C93.2224762,179.629647 91.9657143,180.888735 90.4175238,180.888735 M90.4175238,172.588235 C87.399619,172.588235 84.952381,175.044853 84.952381,178.075382 C84.952381,181.104382 87.399619,183.559088 90.4175238,183.559088 C93.4373333,183.559088 95.8830476,181.104382 95.8830476,178.075382 C95.8830476,175.044853 93.4373333,172.588235 90.4175238,172.588235" id="Fill-7" fill="#3A4046" sketch:type="MSShapeGroup"></path>
        <path d="M65.2742857,180.888735 C63.727619,180.888735 62.471619,179.629647 62.471619,178.075382 C62.471619,176.519588 63.727619,175.260118 65.2742857,175.260118 C66.824381,175.260118 68.0792381,176.519588 68.0792381,178.075382 C68.0792381,179.629647 66.824381,180.888735 65.2742857,180.888735 M65.2742857,172.588235 C62.256381,172.588235 59.8095238,175.044853 59.8095238,178.075382 C59.8095238,181.104382 62.256381,183.559088 65.2742857,183.559088 C68.2940952,183.559088 70.7417143,181.104382 70.7417143,178.075382 C70.7417143,175.044853 68.2940952,172.588235 65.2742857,172.588235" id="Fill-9" fill="#3A4046" sketch:type="MSShapeGroup"></path>
        <path d="M84.6518095,180.729294 C84.3062857,180.830235 83.7775238,180.929647 83.576381,180.929647 C82.6422857,180.929647 82.4388571,180.606559 82.4388571,179.709176 L82.4388571,174.641088 L84.6735238,174.641088 L84.6735238,172.523235 L82.4388571,172.523235 L82.4388571,169.529412 L79.9245714,169.529412 L79.3961905,172.523235 L77.6445714,172.523235 L77.6445714,172.524765 L77.5020952,172.524765 C76.0697143,172.531647 74.9893333,173.408765 74.296381,174.782559 L73.4220952,172.523235 L71.6190476,172.523235 L71.6190476,183.049412 L74.7005714,183.049412 L74.7005714,178.469588 C74.7005714,176.161323 76.0594286,174.686588 77.6700952,174.641088 L79.3558095,174.641088 L79.3558095,179.873971 C79.3558095,182.337088 80.6137143,183.253206 82.6620952,183.253206 C83.7192381,183.253206 84.5295238,183.029147 85.015619,182.867412 L84.6518095,180.729294 L84.6518095,180.729294 Z" id="Fill-11" fill="#3A4046" sketch:type="MSShapeGroup"></path>
        <path d="M99.7577143,175.918529 L99.7577143,183.114412 L96.7619048,183.114412 L96.7619048,172.588235 L98.5801905,172.588235 L99.1893333,174.196029" id="Fill-13" fill="#3A4046" sketch:type="MSShapeGroup"></path>
        <path d="M99.047619,174.452206 C99.9584762,173.391559 101.204571,172.588235 102.664381,172.588235 C105.160381,172.588235 106.187048,174.585265 106.187048,176.437382 L106.187048,183.360647 L103.102095,183.360647 L103.102095,176.526471 C103.102095,175.624118 102.353905,175.134323 101.542095,175.134323 C100.678095,175.134323 100.122667,175.631 99.6346667,176.161324" id="Fill-15" fill="#3A4046" sketch:type="MSShapeGroup"></path>
        <path d="M48,168.764706 L51.4339048,168.764706 L56.1493333,177.779059 L56.1493333,168.764706 L58.9935238,168.764706 L58.9935238,183.102941 L55.8822857,183.102941 L50.8453333,173.191206 L50.8453333,183.102941 L48,183.102941 L48,168.764706 L48,168.764706 Z" id="Fill-17" fill="#3A4046" sketch:type="MSShapeGroup"></path>
        <path d="M115.209524,163.411765 L115.209524,163.925265 L114.461333,163.925265 L114.461333,166.450706 L113.877333,166.450706 L113.877333,163.925265 L113.142857,163.925265 L113.142857,163.411765 L115.209524,163.411765 L115.209524,163.411765 Z" id="Fill-19" fill="#9CA0A6" sketch:type="MSShapeGroup"></path>
        <path d="M115.809524,166.450706 L115.809524,163.411765 L116.599619,163.411765 L117.124571,165.401912 L117.658286,163.411765 L118.456762,163.411765 L118.456762,166.450706 L117.975238,166.450706 L117.975238,164.073235 L117.961524,164.073235 L117.349714,166.450706 L116.921905,166.450706 L116.304381,164.073235 L116.291048,164.073235 L116.291048,166.450706 L115.809524,166.450706 L115.809524,166.450706 Z" id="Fill-21" fill="#9CA0A6" sketch:type="MSShapeGroup"></path>
        <path d="M47.2380952,195.847912 L47.9508571,194.735265 C48.5299048,195.164647 49.3988571,195.563441 50.4586667,195.563441 C51.4887619,195.563441 52.1245714,195.095059 52.1245714,194.281794 C52.1245714,193.346177 51.3211429,193.098412 50.0007619,192.637294 C48.8167619,192.219765 47.6525714,191.620235 47.6525714,189.936735 C47.6525714,188.359147 48.8921905,187.5 50.559619,187.5 C51.6681905,187.5 52.4849524,187.719088 53.1428571,188.107941 L52.5725714,189.291706 C52.0205714,189.003794 51.3611429,188.808412 50.5862857,188.808412 C49.6571429,188.808412 49.1001905,189.160177 49.1001905,189.899647 C49.1001905,190.768353 49.7459048,190.988971 50.960381,191.389677 C52.2270476,191.801853 53.6209524,192.389912 53.6209524,194.255029 C53.6209524,195.833 52.4971429,196.873382 50.4807619,196.873382 C48.984381,196.873382 47.8853333,196.354912 47.2380952,195.847912" id="Fill-23" fill="#9CA0A6" sketch:type="MSShapeGroup"></path>
        <path d="M56.3809524,187.5 L61.7798095,187.5 L61.7798095,188.759471 L57.9173333,188.759471 L57.9173333,191.246294 L60.967619,191.246294 L60.967619,192.478618 L57.9173333,192.478618 L57.9173333,195.352765 L62.0144762,195.352765 L62.0144762,196.610323 L56.3809524,196.610323 L56.3809524,187.5 L56.3809524,187.5 Z" id="Fill-25" fill="#9CA0A6" sketch:type="MSShapeGroup"></path>
        <path d="M64,192.204088 C64,189.545588 65.2681905,187.5 67.799619,187.5 C68.9333333,187.5 69.8293333,187.860176 70.4601905,188.597735 L69.5641905,189.638118 C69.0224762,189.105882 68.5630476,188.845118 67.8247619,188.845118 C66.3386667,188.845118 65.6525714,190.065588 65.6525714,192.320324 C65.6525714,194.436647 66.3767619,195.509147 67.8380952,195.509147 C68.6499048,195.509147 69.2201905,195.081294 69.720381,194.549441 L70.6247619,195.561147 C69.9668571,196.340765 69.1432381,196.871088 67.8247619,196.871088 C65.2144762,196.871088 64,194.874059 64,192.204088" id="Fill-27" fill="#9CA0A6" sketch:type="MSShapeGroup"></path>
        <path d="M73.1428571,193.123647 L73.1428571,187.5 L74.6910476,187.5 L74.6910476,193.374471 C74.6910476,194.627059 75,195.446823 76.3169524,195.446823 C77.6220952,195.446823 77.9455238,194.627059 77.9455238,193.374471 L77.9455238,187.5 L79.5089524,187.5 L79.5089524,193.123647 C79.5089524,195.381059 78.6434286,196.73 76.3051429,196.73 C74.0053333,196.73 73.1428571,195.381059 73.1428571,193.123647" id="Fill-29" fill="#9CA0A6" sketch:type="MSShapeGroup"></path>
        <path d="M85.5721905,191.557529 C86.7230476,191.557529 87.3150476,191.182059 87.3150476,190.129823 C87.3150476,189.118118 86.7112381,188.757559 85.6624762,188.757559 L84.2034286,188.757559 L84.2034286,191.557529 L85.5721905,191.557529 L85.5721905,191.557529 Z M89.0598095,196.611853 L87.3805714,196.611853 L85.6377143,192.747794 L84.2034286,192.747794 L84.2034286,196.611853 L82.6666667,196.611853 L82.6666667,187.5 L85.6278095,187.5 C87.4609524,187.5 88.8921905,188.159941 88.8921905,190.156588 C88.8921905,191.518912 88.0784762,192.202559 87.1725714,192.527559 L89.0598095,196.611853 L89.0598095,196.611853 Z" id="Fill-31" fill="#9CA0A6" sketch:type="MSShapeGroup"></path>
        <path d="M91.4285714,187.5 L96.8270476,187.5 L96.8270476,188.759471 L92.9634286,188.759471 L92.9634286,191.246294 L96.0099048,191.246294 L96.0099048,192.478618 L92.9634286,192.478618 L92.9634286,195.352765 L97.0582857,195.352765 L97.0582857,196.610323 L91.4285714,196.610323 L91.4285714,187.5 L91.4285714,187.5 Z" id="Fill-33" fill="#9CA0A6" sketch:type="MSShapeGroup"></path>
        <path d="M101.986667,195.352765 C104.105905,195.352765 104.830476,194.371265 104.830476,192.022471 C104.830476,189.961588 104.261714,188.757559 102.177905,188.757559 L101.352762,188.757559 L101.352762,195.352765 L101.986667,195.352765 L101.986667,195.352765 Z M99.8095238,187.5 L102.07581,187.5 C105.035048,187.5 106.457143,189.107794 106.457143,192.022471 C106.457143,194.992206 105.009905,196.611853 102.154286,196.611853 L99.8095238,196.611853 L99.8095238,187.5 L99.8095238,187.5 Z" id="Fill-35" fill="#9CA0A6" sketch:type="MSShapeGroup"></path>
        <path d="M21.839619,168.815559 C17.8537143,168.815559 14.104381,170.374794 11.2811429,173.204971 C8.46133333,176.036676 6.90819048,179.799794 6.90819048,183.800353 C6.90819048,187.800147 8.46133333,191.563265 11.2811429,194.396882 C14.1024762,197.225147 17.8518095,198.784382 21.839619,198.785912 C25.8251429,198.784382 29.5744762,197.225147 32.3977143,194.394971 C35.2140952,191.563265 36.767619,187.800147 36.7691429,183.800353 C36.767619,179.799794 35.2140952,176.036676 32.3961905,173.203441 C29.5729524,170.374794 25.823619,168.815559 21.839619,168.815559 M21.839619,205.719882 C9.79847619,205.719882 0,195.885382 0,183.800353 C0,171.714941 9.79847619,161.882353 21.839619,161.882353 C33.8792381,161.882353 43.6754286,171.714941 43.6773333,183.800353 C43.6754286,195.885382 33.8792381,205.719882 21.839619,205.719882" id="Fill-37" fill="#FFC10E" sketch:type="MSShapeGroup"></path>
        <path d="M47.4167619,158.441176 L45.7142857,158.441176 L45.7142857,160.150294 L47.4167619,160.150294 L47.4167619,158.441176 L47.4167619,158.441176 Z" id="Fill-39" fill="#FFC10E" sketch:type="MSShapeGroup"></path>
        <path d="M47.4167619,155 L45.7142857,155 L45.7142857,156.712559 L47.4167619,156.712559 L47.4167619,155 L47.4167619,155 Z" id="Fill-41" fill="#FFC10E" sketch:type="MSShapeGroup"></path>
        <path d="M42.7329524,160.352941 L41.1428571,160.352941 L41.1428571,162.021529 L42.7329524,162.021529 L42.7329524,160.352941 L42.7329524,160.352941 Z" id="Fill-42" fill="#FFC10E" sketch:type="MSShapeGroup"></path>
        <path d="M39.3180952,163.411765 L37.7142857,163.411765 L37.7142857,165.007706 L39.3180952,165.007706 L39.3180952,163.411765 L39.3180952,163.411765 Z" id="Fill-43" fill="#3A4046" sketch:type="MSShapeGroup"></path>
        <path d="M44.4499048,161.882353 L42.6666667,161.882353 L42.6666667,163.490147 L44.4499048,163.490147 L44.4499048,161.882353 L44.4499048,161.882353 Z" id="Fill-44" fill="#3A4046" sketch:type="MSShapeGroup"></path>
        <path d="M36.1904762,163.411382 L37.7874286,163.411382 L37.7874286,161.882353 L36.1904762,161.882353 L36.1904762,163.411382 L36.1904762,163.411382 Z" id="Fill-45" fill="#3A4046" sketch:type="MSShapeGroup"></path>
        <path d="M42.7329524,163.411765 L41.1428571,163.411765 L41.1428571,165.007706 L42.7329524,165.007706 L42.7329524,163.411765 L42.7329524,163.411765 Z" id="Fill-46" fill="#3A4046" sketch:type="MSShapeGroup"></path>
        <path d="M45.8750476,156.911765 L44.1904762,156.911765 L44.1904762,158.605588 L45.8750476,158.605588 L45.8750476,156.911765 L45.8750476,156.911765 Z" id="Fill-47" fill="#3A4046" sketch:type="MSShapeGroup"></path>
        <path d="M44.2491429,158.441176 L41.1428571,158.441176 L41.1428571,160.138059 L44.2491429,160.138059 L44.2491429,158.441176 L44.2491429,158.441176 Z" id="Fill-48" fill="#3A4046" sketch:type="MSShapeGroup"></path>
        <path d="M39.6190476,163.629324 L41.1672381,163.629324 L41.1672381,160.352941 L39.6190476,160.352941 L39.6190476,163.629324 L39.6190476,163.629324 Z" id="Fill-49" fill="#3A4046" sketch:type="MSShapeGroup"></path>
        <path d="M39.5468788,164.941176 L39.5468788,166.549353 L37.9430693,166.549353 L37.9430693,164.941176 L35.2824979,164.941176 L35.2824979,166.099706 L33.8565931,166.099706 L33.8565931,167.528941 L35.4485931,167.528941 L35.4485931,169.121823 L33.8565931,169.121823 L33.8565931,167.528941 L32.1640217,167.528941 L32.1640217,170.027618 L30.5636407,170.027618 L30.5636407,171.622029 L29.5019264,171.622029 L29.5019264,173.223323 L28.3339264,173.223323 C27.0223074,175.181353 23.7343074,181.284853 22.7415455,183.769765 C19.1583074,178.765912 16.3769741,176.782647 14.1861169,176.065353 C13.0051645,175.708235 11.5811645,176.999823 13.5434502,179.032029 C18.0508788,184.007206 19.4703074,188.126676 20.8405931,191.413 C21.5655455,193.145823 24.8146883,193.415382 25.4672598,191.650441 C26.8546883,187.921353 28.8661169,183.731147 31.2482122,180.289588 L31.2482122,178.506676 L32.5198312,178.506676 L32.5198312,176.8985 L33.8565931,176.8985 L33.8565931,175.034912 L35.4535455,175.034912 L35.4535455,173.238235 L33.8383074,173.238235 L33.8383074,171.605206 L35.4535455,171.605206 L35.4535455,173.238235 L37.033736,173.238235 L37.0306883,171.622029 L38.2969741,171.622029 L38.2969741,169.670882 L39.7228788,169.670882 L39.7228788,168.328823 L41.0950693,168.328823 L41.0950693,164.941176 L39.5468788,164.941176 L39.5468788,164.941176 Z" id="Fill-50" fill="#3A4046" sketch:type="MSShapeGroup"></path>
        <path d="M12.9417143,215.854529 L12.9417143,215.835029 C12.9417143,214.824088 12.2598095,214.159177 11.4495238,214.159177 C10.6392381,214.159177 9.92761905,214.833647 9.92761905,215.835029 L9.92761905,215.854529 C9.92761905,216.866235 10.6392381,217.531912 11.4495238,217.531912 C12.2689524,217.531912 12.9417143,216.8865 12.9417143,215.854529 L12.9417143,215.854529 L12.9417143,215.854529 Z M8.76190476,213.226618 L9.95771429,213.226618 L9.95771429,214.100294 C10.3428571,213.554294 10.8860952,213.117647 11.7264762,213.117647 C12.9615238,213.117647 14.1569524,214.100294 14.1569524,215.835029 L14.1569524,215.854529 C14.1569524,217.590794 12.9710476,218.571912 11.7264762,218.571912 C10.8670476,218.571912 10.3234286,218.136029 9.95771429,217.649676 L9.95771429,220.050853 L8.76190476,220.050853 L8.76190476,213.226618 L8.76190476,213.226618 Z" id="Fill-51" fill="#9CA0A6" sketch:type="MSShapeGroup"></path>
        <path d="M19.2255238,215.874794 L19.2255238,215.854529 C19.2255238,214.932294 18.5634286,214.169118 17.6247619,214.169118 C16.6655238,214.169118 16.0533333,214.922735 16.0533333,215.835029 L16.0533333,215.854529 C16.0533333,216.767206 16.7154286,217.541471 17.6441905,217.541471 C18.6125714,217.541471 19.2255238,216.777529 19.2255238,215.874794 M14.8571429,215.874794 L14.8571429,215.854529 C14.8571429,214.358 16.0434286,213.117647 17.6441905,213.117647 C19.2449524,213.117647 20.4209524,214.337735 20.4209524,215.835029 L20.4209524,215.854529 C20.4209524,217.343029 19.2354286,218.582618 17.6247619,218.582618 C16.0335238,218.582618 14.8571429,217.363294 14.8571429,215.874794" id="Fill-52" fill="#9CA0A6" sketch:type="MSShapeGroup"></path>
        <path d="M21.3333333,213.137147 L22.5592381,213.137147 L23.6060952,216.728588 L24.7622857,213.117647 L25.7801905,213.117647 L26.9459048,216.728588 L28.0133333,213.137147 L29.2087619,213.137147 L27.4998095,218.414 L26.432,218.414 L25.2666667,214.833265 L24.0899048,218.414 L23.023619,218.414 L21.3333333,213.137147 L21.3333333,213.137147 Z" id="Fill-53" fill="#9CA0A6" sketch:type="MSShapeGroup"></path>
        <path d="M33.5782857,215.478294 C33.4994286,214.704794 33.0449524,214.100294 32.2540952,214.100294 C31.5226667,214.100294 31.0095238,214.665794 30.9005714,215.478294 L33.5782857,215.478294 L33.5782857,215.478294 Z M29.7142857,215.865235 L29.7142857,215.844971 C29.7142857,214.347677 30.7721905,213.117647 32.264,213.117647 C33.9241905,213.117647 34.7641905,214.426824 34.7641905,215.935206 C34.7641905,216.043794 34.7542857,216.152765 34.7447619,216.272059 L30.9104762,216.272059 C31.0388571,217.124324 31.6411429,217.600735 32.4121905,217.600735 C32.9954286,217.600735 33.4106667,217.383176 33.8251429,216.976353 L34.5264762,217.600735 C34.0327619,218.195676 33.3508571,218.582618 32.3927619,218.582618 C30.8807619,218.582618 29.7142857,217.481059 29.7142857,215.865235 L29.7142857,215.865235 L29.7142857,215.865235 Z" id="Fill-54" fill="#9CA0A6" sketch:type="MSShapeGroup"></path>
        <path d="M35.8095238,213.21902 L37.0053333,213.21902 L37.0053333,214.398962 C37.3310476,213.616285 37.9337143,213.080991 38.8525714,213.119609 L38.8525714,214.389403 L38.784,214.389403 C37.736,214.389403 37.0053333,215.074197 37.0053333,216.462903 L37.0053333,218.456109 L35.8095238,218.456109 L35.8095238,213.21902 L35.8095238,213.21902 Z" id="Fill-55" fill="#9CA0A6" sketch:type="MSShapeGroup"></path>
        <path d="M43.4830476,215.478294 C43.4041905,214.704794 42.9497143,214.100294 42.1588571,214.100294 C41.4274286,214.100294 40.9142857,214.665794 40.8060952,215.478294 L43.4830476,215.478294 L43.4830476,215.478294 Z M39.6190476,215.865235 L39.6190476,215.844971 C39.6190476,214.347677 40.6773333,213.117647 42.1691429,213.117647 C43.8293333,213.117647 44.6689524,214.426824 44.6689524,215.935206 C44.6689524,216.043794 44.6590476,216.152765 44.6499048,216.272059 L40.8152381,216.272059 C40.944,217.124324 41.5466667,217.600735 42.3169524,217.600735 C42.9005714,217.600735 43.3158095,217.383176 43.7302857,216.976353 L44.432,217.600735 C43.9375238,218.195676 43.256,218.582618 42.2979048,218.582618 C40.7859048,218.582618 39.6190476,217.481059 39.6190476,215.865235 L39.6190476,215.865235 L39.6190476,215.865235 Z" id="Fill-56" fill="#9CA0A6" sketch:type="MSShapeGroup"></path>
        <path d="M49.9337143,215.837323 L49.9337143,215.817824 C49.9337143,214.806882 49.2220952,214.141971 48.4217143,214.141971 C47.6015238,214.141971 46.92,214.777059 46.92,215.817824 L46.92,215.837323 C46.92,216.849029 47.6114286,217.514706 48.4217143,217.514706 C49.2220952,217.514706 49.9337143,216.839471 49.9337143,215.837323 M45.7142857,215.837323 L45.7142857,215.817824 C45.7142857,214.083088 46.8899048,213.100441 48.1348571,213.100441 C48.9942857,213.100441 49.5379048,213.537088 49.9135238,214.022676 L49.9135238,211.205882 L51.1097143,211.205882 L51.1097143,218.4465 L49.9135238,218.4465 L49.9135238,217.573588 C49.528381,218.118823 48.9847619,218.554706 48.1348571,218.554706 C46.9097143,218.554706 45.7142857,217.573588 45.7142857,215.837323" id="Fill-57" fill="#9CA0A6" sketch:type="MSShapeGroup"></path>
        <path d="M59.7992381,215.837323 L59.7992381,215.817824 C59.7992381,214.806882 59.1169524,214.141971 58.3070476,214.141971 C57.496381,214.141971 56.7851429,214.816441 56.7851429,215.817824 L56.7851429,215.837323 C56.7851429,216.849029 57.496381,217.514706 58.3070476,217.514706 C59.1268571,217.514706 59.7992381,216.869294 59.7992381,215.837323 M56.8148571,217.632471 L56.8148571,218.4465 L55.6190476,218.4465 L55.6190476,211.205882 L56.8148571,211.205882 L56.8148571,214.083088 C57.2,213.537088 57.743619,213.100441 58.583619,213.100441 C59.8186667,213.100441 61.0144762,214.083088 61.0144762,215.817824 L61.0144762,215.837323 C61.0144762,217.573588 59.8281905,218.554706 58.583619,218.554706 C57.7241905,218.554706 57.1805714,218.118823 56.8148571,217.632471" id="Fill-58" fill="#9CA0A6" sketch:type="MSShapeGroup"></path>
        <path d="M61.6598095,219.653588 L62.064,218.761177 C62.2819048,218.880853 62.5184762,218.96 62.7657143,218.96 C63.1024762,218.96 63.3093333,218.8105 63.5066667,218.355118 L61.3333333,213.117647 L62.6072381,213.117647 L64.0902857,217.005412 L65.4441905,213.117647 L66.6887619,213.117647 L64.6137143,218.503471 C64.1992381,219.574441 63.7344762,219.971706 62.8940952,219.971706 C62.3912381,219.971706 62.0255238,219.852412 61.6598095,219.653588" id="Fill-59" fill="#9CA0A6" sketch:type="MSShapeGroup"></path>
        <path d="M70.4761905,211.588235 L71.8194286,211.588235 L73.9051429,216.923971 L75.9794286,211.588235 L77.2940952,211.588235 L74.4190476,218.580324 L73.352381,218.580324 L70.4761905,211.588235 L70.4761905,211.588235 Z" id="Fill-60" fill="#A30146" sketch:type="MSShapeGroup"></path>
        <path d="M81.1969524,215.478294 C81.1180952,214.704794 80.663619,214.100294 79.8731429,214.100294 C79.1417143,214.100294 78.6285714,214.665794 78.519619,215.478294 L81.1969524,215.478294 L81.1969524,215.478294 Z M77.3333333,215.865235 L77.3333333,215.844971 C77.3333333,214.347677 78.3908571,213.117647 79.8834286,213.117647 C81.543619,213.117647 82.3828571,214.426824 82.3828571,215.935206 C82.3828571,216.043794 82.3729524,216.152765 82.3634286,216.272059 L78.5295238,216.272059 C78.6582857,217.124324 79.2609524,217.600735 80.0308571,217.600735 C80.6148571,217.600735 81.0293333,217.383176 81.4438095,216.976353 L82.1462857,217.600735 C81.6514286,218.195676 80.9702857,218.582618 80.0114286,218.582618 C78.4994286,218.582618 77.3333333,217.481059 77.3333333,215.865235 L77.3333333,215.865235 L77.3333333,215.865235 Z" id="Fill-61" fill="#A30146" sketch:type="MSShapeGroup"></path>
        <path d="M83.8095238,213.21902 L85.0053333,213.21902 L85.0053333,214.398962 C85.3314286,213.616285 85.9344762,213.080991 86.8537143,213.119609 L86.8537143,214.389403 L86.784381,214.389403 C85.7367619,214.389403 85.0053333,215.074197 85.0053333,216.462903 L85.0053333,218.456109 L83.8095238,218.456109 L83.8095238,213.21902 L83.8095238,213.21902 Z" id="Fill-62" fill="#A30146" sketch:type="MSShapeGroup"></path>
        <path d="M87.6681905,213.149 L88.864381,213.149 L88.864381,218.386088 L87.6681905,218.386088 L87.6681905,213.149 L87.6681905,213.149 Z M87.6190476,211.205882 L88.9028571,211.205882 L88.9028571,212.345294 L87.6190476,212.345294 L87.6190476,211.205882 L87.6190476,211.205882 Z" id="Fill-63" fill="#A30146" sketch:type="MSShapeGroup"></path>
        <path d="M90.2857143,217.619088 L91.0171429,216.745412 C91.679619,217.321235 92.3413333,217.647382 93.2007619,217.647382 C93.952381,217.647382 94.4266667,217.300971 94.4266667,216.775235 L94.4266667,216.754971 C94.4266667,216.259824 94.1497143,215.991029 92.8655238,215.694706 C91.3927619,215.337588 90.5626667,214.901706 90.5626667,213.621588 L90.5626667,213.601324 C90.5626667,212.411059 91.5500952,211.588235 92.9241905,211.588235 C93.9321905,211.588235 94.7325714,211.895647 95.4339048,212.461147 L94.7824762,213.382618 C94.159619,212.916529 93.536381,212.668765 92.904,212.668765 C92.1927619,212.668765 91.7786667,213.036206 91.7786667,213.492353 L91.7786667,213.512618 C91.7786667,214.047912 92.0937143,214.286118 93.4194286,214.603471 C94.8811429,214.960588 95.6419048,215.485559 95.6419048,216.637206 L95.6419048,216.655559 C95.6419048,217.955941 94.623619,218.728677 93.1706667,218.728677 C92.1139048,218.728677 91.1161905,218.362 90.2857143,217.619088" id="Fill-64" fill="#A30146" sketch:type="MSShapeGroup"></path>
        <path d="M96.8118095,213.149 L98.0068571,213.149 L98.0068571,218.386088 L96.8118095,218.386088 L96.8118095,213.149 L96.8118095,213.149 Z M96.7619048,211.205882 L98.0468571,211.205882 L98.0468571,212.345294 L96.7619048,212.345294 L96.7619048,211.205882 L96.7619048,211.205882 Z" id="Fill-65" fill="#A30146" sketch:type="MSShapeGroup"></path>
        <path d="M103.647238,215.596823 L103.647238,215.576559 C103.647238,214.714735 102.946286,214.128588 102.11581,214.128588 C101.285714,214.128588 100.633524,214.704412 100.633524,215.567765 L100.633524,215.587265 C100.633524,216.450235 101.295619,217.035235 102.11581,217.035235 C102.946286,217.035235 103.647238,216.440676 103.647238,215.596823 M99.6853333,219.445588 L100.129905,218.543618 C100.683429,218.890029 101.276571,219.097647 101.98781,219.097647 C103.055238,219.097647 103.637333,218.543618 103.637333,217.491382 L103.637333,217.085324 C103.203048,217.649676 102.659429,218.046941 101.800381,218.046941 C100.574476,218.046941 99.4285714,217.134265 99.4285714,215.596823 L99.4285714,215.576559 C99.4285714,214.029941 100.584381,213.117647 101.800381,213.117647 C102.679619,213.117647 103.223238,213.524471 103.62819,214.010059 L103.62819,213.226618 L104.823238,213.226618 L104.823238,217.391971 C104.823238,218.274823 104.596952,218.929029 104.161905,219.365677 C103.687619,219.841706 102.956571,220.070735 102.017143,220.070735 C101.158095,220.070735 100.356952,219.852029 99.6853333,219.445588" id="Fill-66" fill="#A30146" sketch:type="MSShapeGroup"></path>
        <path d="M106.285714,213.226618 L107.480762,213.226618 L107.480762,214.039882 C107.817524,213.544735 108.30019,213.117647 109.111238,213.117647 C110.287619,213.117647 110.969143,213.911412 110.969143,215.130735 L110.969143,218.463706 L109.772952,218.463706 L109.772952,215.487853 C109.772952,214.674588 109.368381,214.2085 108.657143,214.2085 C107.964571,214.2085 107.480762,214.694853 107.480762,215.508118 L107.480762,218.463706 L106.285714,218.463706 L106.285714,213.226618 L106.285714,213.226618 Z" id="Fill-67" fill="#A30146" sketch:type="MSShapeGroup"></path>
    </g>
</svg>